<?xml version="1.0" standalone="no"?><!DOCTYPE svg PUBLIC "-//W3C//DTD SVG 1.1//EN" "http://www.w3.org/Graphics/SVG/1.1/DTD/svg11.dtd"><svg t="1701745925908" class="icon" viewBox="0 0 1024 1024" version="1.1" xmlns="http://www.w3.org/2000/svg" p-id="9679" width="32" height="32" xmlns:xlink="http://www.w3.org/1999/xlink"><path d="M380.261113 837.756442m-57.416307 0a57.416307 57.416307 0 1 0 114.832613 0 57.416307 57.416307 0 1 0-114.832613 0Z" fill="#000000" p-id="9680"></path><path d="M662.711484 837.756442m-57.416307 0a57.416307 57.416307 0 1 0 114.832613 0 57.416307 57.416307 0 1 0-114.832613 0Z" fill="#000000" p-id="9681"></path><path d="M173.852849 372.096972l18.423504 112.527869h399.045861v46.557277H199.90585l7.629498 46.550053h383.801316v46.557277H215.164846l6.856434 41.904439h369.308159v46.557277H229.636328l17.159145 104.761099h51.21734c0-44.570429 36.138967-80.70217 80.70217-80.702171s80.70217 36.131742 80.702171 80.702171h122.599384c0-44.570429 36.138967-80.70217 80.702171-80.702171 44.570429 0 80.70217 36.131742 80.70217 80.702171h52.756244l32.598764-445.422516H173.852849z" fill="#000000" p-id="9682"></path><path d="M301.112296 220.915869c-55.870178 17.072447-114.847063 128.812802-114.847063 128.812802h327.461519L400.433043 255.060763c-58.976886-37.251602-99.320746-34.144893-99.320747-34.144894zM785.310868 298.511331c-12.412384-20.17193-61.288855-68.41261-96.987102-77.653261L480.354923 298.511331s41.12415 30.26512 58.196597 51.21734h251.426636s7.759546-31.038185-4.667288-51.21734z" fill="#000000" p-id="9683"></path></svg>