<?xml version="1.0" standalone="no"?><!DOCTYPE svg PUBLIC "-//W3C//DTD SVG 1.1//EN" "http://www.w3.org/Graphics/SVG/1.1/DTD/svg11.dtd"><svg t="1701060805340" class="icon" viewBox="0 0 1024 1024" version="1.1" xmlns="http://www.w3.org/2000/svg" p-id="8041" width="48" height="48" xmlns:xlink="http://www.w3.org/1999/xlink"><path d="M542.293333 213.333333a30.08 30.08 0 0 0-22.4 9.088 29.354667 29.354667 0 0 0-7.68 22.997334 33.792 33.792 0 0 0 31.744 30.122666 207.914667 207.914667 0 0 1 196.266667 196.266667 34.133333 34.133333 0 0 0 29.866667 31.872 26.581333 26.581333 0 0 0 3.157333 0 28.842667 28.842667 0 0 0 28.970667-30.464A275.242667 275.242667 0 0 0 542.293333 213.333333z" fill="#ffffff" p-id="8042"></path><path d="M829.653333 194.474667A365.013333 365.013333 0 0 0 584.789333 85.333333a28.672 28.672 0 0 0-29.866666 31.786667 33.536 33.536 0 0 0 31.488 29.866667 306.986667 306.986667 0 0 1 290.602666 290.56 33.408 33.408 0 0 0 29.866667 31.530666 26.581333 26.581333 0 0 0 3.157333 0A28.544 28.544 0 0 0 938.666667 439.466667a365.696 365.696 0 0 0-109.013334-244.992zM576 427.136h-384a64 64 0 0 0-64 64v384a64 64 0 0 0 64 64h384a64 64 0 0 0 64-64v-384a64 64 0 0 0-64-64z m0 400a48 48 0 0 1-48 48h-288A48 48 0 0 1 192 827.136v-288a48 48 0 0 1 48-48h288a48 48 0 0 1 48 48z" fill="#ffffff" p-id="8043"></path><path d="M384 683.136m-128 0a128 128 0 1 0 256 0 128 128 0 1 0-256 0Z" fill="#ffffff" p-id="8044"></path></svg>